<svg width="745" height="160" viewBox="0 0 745 160" fill="none" xmlns="http://www.w3.org/2000/svg">
  <rect x="10" y="10" width="140" height="140" rx="4" fill="none" stroke="#155e75" stroke-width="2" opacity="0.25"/>
  <rect x="38" y="38" width="38" height="38" rx="2" fill="#155e75" opacity="1.0"/>
  <rect x="84" y="38" width="38" height="38" rx="2" fill="#155e75" opacity="0.7"/>
  <rect x="84" y="84" width="38" height="38" rx="2" fill="#155e75" opacity="0.4"/>
  <rect x="38" y="84" width="38" height="38" rx="2" fill="#155e75" opacity="0.30"/>
  <line x1="10" y1="10" x2="38" y2="38" stroke="#155e75" stroke-width="1.5" opacity="0.2"/>
  <line x1="150" y1="10" x2="122" y2="38" stroke="#155e75" stroke-width="1.5" opacity="0.2"/>
  <line x1="10" y1="150" x2="38" y2="122" stroke="#155e75" stroke-width="1.5" opacity="0.2"/>
  <line x1="150" y1="150" x2="122" y2="122" stroke="#155e75" stroke-width="1.5" opacity="0.2"/>
  <g>
    <path transform="translate(190.0, 108.0) scale(0.1038, -0.1038)" d="M289 -6Q234 -6 194.0 10.0Q154 26 132.0 64.5Q110 103 110 168V696H182V157Q182 111 207.0 86.5Q232 62 278 62H373V-6ZM15 472V529H373V472Z" fill="#155e75"/>
    <path transform="translate(252.4, 108.0) scale(0.1038, -0.1038)" d="M318 -17Q250 -17 200.0 6.5Q150 30 118.0 69.5Q86 109 70.5 158.0Q55 207 55 259V273Q55 324 70.5 373.0Q86 422 118.0 461.0Q150 500 198.5 523.5Q247 547 312 547Q395 547 450.5 510.0Q506 473 534.0 415.5Q562 358 562 292V253H89V311H510L491 282Q491 341 470.5 385.5Q450 430 410.5 455.5Q371 481 312 481Q250 481 209.0 452.0Q168 423 147.5 375.0Q127 327 127 266Q127 206 147.5 156.5Q168 107 210.5 78.0Q253 49 318 49Q387 49 430.0 80.5Q473 112 483 155H553Q543 102 511.0 63.5Q479 25 430.0 4.0Q381 -17 318 -17Z" fill="#155e75"/>
    <path transform="translate(334.2, 108.0) scale(0.1038, -0.1038)" d="M264 -15Q162 -15 107.0 29.5Q52 74 51 149H121Q123 111 155.5 80.0Q188 49 264 49Q335 49 370.5 78.5Q406 108 406 150Q406 189 376.5 210.5Q347 232 291 238L231 244Q159 252 114.5 288.5Q70 325 70 389Q70 436 94.0 471.0Q118 506 161.5 525.5Q205 545 264 545Q349 545 402.5 505.0Q456 465 457 391H387Q386 429 355.0 455.0Q324 481 264 481Q202 481 171.5 454.0Q141 427 141 388Q141 355 164.0 333.5Q187 312 236 307L296 301Q376 292 426.5 255.0Q477 218 477 149Q477 102 450.5 64.5Q424 27 376.0 6.0Q328 -15 264 -15Z" fill="#155e75"/>
    <path transform="translate(407.8, 108.0) scale(0.1038, -0.1038)" d="M264 -15Q162 -15 107.0 29.5Q52 74 51 149H121Q123 111 155.5 80.0Q188 49 264 49Q335 49 370.5 78.5Q406 108 406 150Q406 189 376.5 210.5Q347 232 291 238L231 244Q159 252 114.5 288.5Q70 325 70 389Q70 436 94.0 471.0Q118 506 161.5 525.5Q205 545 264 545Q349 545 402.5 505.0Q456 465 457 391H387Q386 429 355.0 455.0Q324 481 264 481Q202 481 171.5 454.0Q141 427 141 388Q141 355 164.0 333.5Q187 312 236 307L296 301Q376 292 426.5 255.0Q477 218 477 149Q477 102 450.5 64.5Q424 27 376.0 6.0Q328 -15 264 -15Z" fill="#155e75"/>
    <path transform="translate(481.4, 108.0) scale(0.1038, -0.1038)" d="M419 0V159H407V347Q407 406 376.0 437.5Q345 469 280 469Q250 469 219.5 468.0Q189 467 161.5 465.5Q134 464 113 462V528Q135 530 158.0 532.0Q181 534 205.5 534.5Q230 535 253 535Q334 535 383.5 515.0Q433 495 456.0 452.5Q479 410 479 340V0ZM240 -14Q184 -14 141.0 6.0Q98 26 74.5 64.0Q51 102 51 156Q51 209 75.5 246.0Q100 283 146.5 302.5Q193 322 259 322H414V265H254Q191 265 157.5 234.5Q124 204 124 155Q124 105 159.0 75.5Q194 46 254 46Q291 46 325.0 59.5Q359 73 382.0 105.5Q405 138 407 195L429 164Q425 105 401.0 65.5Q377 26 336.0 6.0Q295 -14 240 -14Z" fill="#155e75"/>
    <path transform="translate(559.1, 108.0) scale(0.1038, -0.1038)" d="M97 0V529H157V308H151Q151 424 202.0 479.5Q253 535 362 535H379V467H348Q262 467 217.0 422.5Q172 378 172 292V0Z" fill="#155e75"/>
    <path transform="translate(619.6, 108.0) scale(0.1038, -0.1038)" d="M125 0V529H199V0ZM40 469V529H199V469ZM141 627Q114 627 100.5 641.5Q87 656 87 678Q87 700 100.5 714.5Q114 729 141 729Q168 729 181.0 714.5Q194 700 194 678Q194 656 181.0 641.5Q168 627 141 627Z" fill="#155e75"/>
    <path transform="translate(669.3, 108.0) scale(0.1038, -0.1038)" d="M512 -200V159L544 234Q542 153 511.0 97.0Q480 41 428.5 12.0Q377 -17 312 -17Q254 -17 206.5 5.0Q159 27 125.5 66.0Q92 105 73.5 155.0Q55 205 55 260V274Q55 329 73.0 377.5Q91 426 125.0 464.5Q159 503 206.5 525.0Q254 547 314 547Q385 547 437.5 515.5Q490 484 519.5 429.0Q549 374 551 300L527 306V529H587V-200ZM324 51Q378 51 421.5 75.5Q465 100 490.0 144.0Q515 188 515 246V295Q515 351 490.0 393.5Q465 436 421.5 459.5Q378 483 324 483Q264 483 220.5 454.5Q177 426 153.5 377.0Q130 328 130 267Q130 205 154.0 156.0Q178 107 222.0 79.0Q266 51 324 51Z" fill="#155e75"/>
  </g>
</svg>
